<svg id="Layer_1" data-name="Layer 1" xmlns="http://www.w3.org/2000/svg" viewBox="0 0 726.61 511.32"><defs><style>.cls-1{fill:red;}</style></defs><title>logo</title><path d="M177.24,77.12l12-46.85h8.49l12,46.85h-6.15l-2.72-11.41H186.12L183.4,77.12Zm16-41.18-5.62,23.5h11.77l-5.62-23.5Z" transform="translate(-42.35 -27.63)"/><path d="M216,77.12V27.63h6.22V48.48h.58q.44-7,7.62-7A11.21,11.21,0,0,1,240,46.14q3.39,4.65,3.4,13.16,0,8.82-4.46,13.65t-12.59,4.83q-2.64,0-5.19-.18T216,77.12Zm6.22-19.66V71.65c.87.08,1.77.14,2.68.16s1.81,0,2.71,0a8.47,8.47,0,0,0,7.14-3.28c1.68-2.19,2.52-5.27,2.52-9.26q0-5.7-1.86-8.79a5.84,5.84,0,0,0-5.28-3.08Q222.21,47.43,222.22,57.46Z" transform="translate(-42.35 -27.63)"/><path d="M248.58,77.12V71.38h6.92V47.89h-5.75V42.15h10.79l1,9h.7q.54-9.63,8.56-9.63c3.2,0,5.53,1,7,3.1S280,50,280,54.62h-6.15a11.25,11.25,0,0,0-1-5.51,3.54,3.54,0,0,0-3.27-1.68,6.27,6.27,0,0,0-5.9,3.81q-1.95,3.81-2,10.84v9.3h7.62v5.74Z" transform="translate(-42.35 -27.63)"/><path d="M295,77.78q-5.13,0-8-2.62t-2.82-7.47q0-5.55,3.59-8.52t10.18-3a20.66,20.66,0,0,1,6.15.83V55.15A6,6,0,0,0,302,50q-2.19-1.64-6.49-1.77L288,48l.58-6.2,6.27.1q7.71.12,11.44,3.74t3.74,10.54V70.79l5.27.72v5.61l-10,.33-.29-7.72h-.62a8.12,8.12,0,0,1-2.84,6A10.31,10.31,0,0,1,295,77.78Zm1-5.61a8.39,8.39,0,0,0,4.52-1.12,7.3,7.3,0,0,0,2.71-2.87,7.64,7.64,0,0,0,.91-3.6V62.47a13.36,13.36,0,0,0-3.27-.57c-1.08-.06-2.18-.09-3.29-.09q-7.5,0-7.5,5.22T296,72.17Z" transform="translate(-42.35 -27.63)"/><path d="M331.73,77.78c-2.35,0-4.35-.07-6-.23a29.69,29.69,0,0,1-4.59-.76l.71-6.33q3.07.53,5.43.79a39.22,39.22,0,0,0,4.47.26c3.14,0,5.42-.34,6.84-1a3.46,3.46,0,0,0,2.12-3.31A3.32,3.32,0,0,0,340,64.8a5,5,0,0,0-2.3-1.21l-7.15-2a17.2,17.2,0,0,1-6.76-3.27c-1.43-1.3-2.15-3.26-2.15-5.9q0-5.75,3.91-8.32t12.61-2.57a49.46,49.46,0,0,1,8.21.66l-.65,6.07c-1.58-.18-3-.3-4.19-.36s-2.39-.1-3.54-.1q-5.22,0-7.56,1A3.41,3.41,0,0,0,328,52.05a2.49,2.49,0,0,0,1,2.19,10.35,10.35,0,0,0,3,1.24l5.74,1.58a16.35,16.35,0,0,1,7.17,3.53c1.51,1.48,2.27,3.62,2.27,6.44q0,5.64-3.66,8.2T331.73,77.78ZM329,93l2.26-11.22h6.5L334.33,93Z" transform="translate(-42.35 -27.63)"/><path d="M366.53,77.78A9.22,9.22,0,0,1,359,74.5c-1.79-2.19-2.68-5.27-2.68-9.26V42.15h6.21V65.24A6.57,6.57,0,0,0,364,69.88a5.56,5.56,0,0,0,4.28,1.63,5.89,5.89,0,0,0,5.13-2.42q1.72-2.43,1.73-8.14V42.15h6.21V70.79l4.27.72v5.61l-10,.33-.44-7.06h-.55a9.77,9.77,0,0,1-2.87,5.48A7.67,7.67,0,0,1,366.53,77.78Z" transform="translate(-42.35 -27.63)"/><path d="M444.23,77.78q-19.39,0-19.4-24.15,0-11.44,4.9-17.74t13.79-6.28a17.13,17.13,0,0,1,7.5,1.53,9.83,9.83,0,0,1,4.66,4.37l-4.33,4.85A9.63,9.63,0,0,0,448,36.9a8.42,8.42,0,0,0-4.41-1.22,10.73,10.73,0,0,0-9.06,4.59q-3.42,4.57-3.42,13,0,18.4,14.12,18.41a19.17,19.17,0,0,0,8.38-2L455,75.54A26.25,26.25,0,0,1,444.23,77.78Z" transform="translate(-42.35 -27.63)"/><path d="M474.76,77.78a11.8,11.8,0,0,1-10-4.75q-3.58-4.75-3.58-13.4t3.58-13.41a13,13,0,0,1,20.05,0q3.56,4.74,3.56,13.41T484.79,73A11.8,11.8,0,0,1,474.76,77.78Zm0-6.27a5.84,5.84,0,0,0,5.28-3.1c1.24-2.07,1.86-5,1.86-8.78s-.62-6.73-1.86-8.79a6.07,6.07,0,0,0-10.57,0q-1.86,3.09-1.86,8.79c0,3.79.62,6.71,1.86,8.78A5.84,5.84,0,0,0,474.76,71.51Z" transform="translate(-42.35 -27.63)"/><path d="M507.51,77.78c-2.34,0-4.35-.07-6-.23a29.69,29.69,0,0,1-4.59-.76l.71-6.33q3.08.53,5.43.79a39.22,39.22,0,0,0,4.47.26c3.14,0,5.42-.34,6.84-1a3.44,3.44,0,0,0,2.12-3.31,3.32,3.32,0,0,0-.74-2.36,5,5,0,0,0-2.3-1.21l-7.15-2a17.08,17.08,0,0,1-6.75-3.27c-1.44-1.3-2.16-3.26-2.16-5.9q0-5.75,3.91-8.32t12.62-2.57a49.43,49.43,0,0,1,8.2.66l-.65,6.07c-1.58-.18-3-.3-4.19-.36s-2.39-.1-3.54-.1q-5.22,0-7.56,1a3.41,3.41,0,0,0-2.34,3.29,2.49,2.49,0,0,0,1,2.19,10.47,10.47,0,0,0,3,1.24l5.75,1.58a16.31,16.31,0,0,1,7.16,3.53c1.51,1.48,2.27,3.62,2.27,6.44q0,5.64-3.66,8.2T507.51,77.78Z" transform="translate(-42.35 -27.63)"/><path d="M550.4,77.78q-7.06,0-10.21-3.3T537,63.92v-16h-7.79V42.15H537V31.59h6.21V42.15h14.12v5.74H543.25v15.7q0,4.17,1.8,6c1.2,1.26,3.18,1.88,5.94,1.88a28.48,28.48,0,0,0,3.1-.18q1.63-.18,3.75-.48l.7,6.14c-1.36.27-2.7.46-4,.6S551.86,77.78,550.4,77.78Z" transform="translate(-42.35 -27.63)"/><path d="M583.21,77.78q-7.94,0-12.26-4.7t-4.32-13.51q0-8.58,3.66-13.33t10.34-4.75q6.3,0,9.75,4.29t3.44,12.47c0,1.6-.06,3.1-.18,4.49h-21a10.52,10.52,0,0,0,3.69,6.65,11.9,11.9,0,0,0,7.56,2.26,29.94,29.94,0,0,0,3.8-.25c1.25-.17,2.52-.39,3.81-.68l.76,6.14a35.83,35.83,0,0,1-5,.76C585.73,77.73,584.38,77.78,583.21,77.78Zm-2.52-30.16A7.14,7.14,0,0,0,575,50.16a12.55,12.55,0,0,0-2.52,7.23h15.76c0-3.14-.66-5.56-2-7.24A6.64,6.64,0,0,0,580.69,47.62Z" transform="translate(-42.35 -27.63)"/><path d="M619.72,77.78q-5.4,0-7.8-3.3t-2.4-10.56V33.37h-9.14V27.63h15.35v36a18.13,18.13,0,0,0,.47,4.53A4.09,4.09,0,0,0,618,70.69a7.91,7.91,0,0,0,4,.82,20.51,20.51,0,0,0,6.21-1.25l.7,6.14a32.45,32.45,0,0,1-4.55,1A31.52,31.52,0,0,1,619.72,77.78Z" transform="translate(-42.35 -27.63)"/><path d="M389.79,137.89v-6.14h29.3v6.14Z" transform="translate(-42.35 -27.63)"/><path d="M127.88,239.31V192.45h27.54v6.27H133.74v14h16.41V219H133.74V233h21.68v6.27Z" transform="translate(-42.35 -27.63)"/><path d="M171.94,239.31l-11.25-35h6.62l8.5,29h.53l8.2-29h6.62l-11,35Z" transform="translate(-42.35 -27.63)"/><path d="M207.1,240c-3.42,0-6.07-.88-8-2.62s-2.82-4.24-2.82-7.48q0-5.53,3.59-8.51t10.18-3a20.68,20.68,0,0,1,6.15.82v-1.88a6,6,0,0,0-2.18-5.13q-2.19-1.63-6.49-1.76l-7.44-.23.58-6.21,6.27.1q7.71.14,11.44,3.75t3.74,10.54V233l5.27.73v5.61l-10,.33-.29-7.72h-.62a8.16,8.16,0,0,1-2.84,6A10.31,10.31,0,0,1,207.1,240Zm1-5.61a8.41,8.41,0,0,0,4.53-1.12,7.37,7.37,0,0,0,2.71-2.87,7.69,7.69,0,0,0,.91-3.6v-2.11a14,14,0,0,0-3.27-.58c-1.08-.05-2.18-.08-3.29-.08q-7.5,0-7.5,5.21T208.09,234.36Z" transform="translate(-42.35 -27.63)"/><path d="M250.58,240q-5.4,0-7.8-3.3t-2.4-10.56V195.56h-9.14v-5.75h15.35v36a18,18,0,0,0,.47,4.52,4.06,4.06,0,0,0,1.83,2.57,7.9,7.9,0,0,0,4,.83,20.83,20.83,0,0,0,6.21-1.25l.7,6.13a31.18,31.18,0,0,1-4.55,1.06A31.61,31.61,0,0,1,250.58,240Z" transform="translate(-42.35 -27.63)"/><path d="M278.64,240a9.25,9.25,0,0,1-7.57-3.28q-2.69-3.28-2.68-9.26v-23.1h6.21v23.1a6.58,6.58,0,0,0,1.52,4.64,5.56,5.56,0,0,0,4.28,1.63,5.91,5.91,0,0,0,5.13-2.43q1.73-2.42,1.72-8.13V204.33h6.22V233l4.27.73v5.61l-10,.33-.44-7.06h-.55a9.75,9.75,0,0,1-2.88,5.48A7.63,7.63,0,0,1,278.64,240Z" transform="translate(-42.35 -27.63)"/><path d="M312.57,240c-3.42,0-6.07-.88-8-2.62s-2.82-4.24-2.82-7.48q0-5.53,3.58-8.51t10.19-3a20.68,20.68,0,0,1,6.15.82v-1.88a6,6,0,0,0-2.18-5.13q-2.19-1.63-6.49-1.76l-7.45-.23.59-6.21,6.27.1q7.71.14,11.44,3.75t3.74,10.54V233l5.27.73v5.61l-10,.33-.29-7.72H322a8.16,8.16,0,0,1-2.84,6A10.31,10.31,0,0,1,312.57,240Zm1-5.61a8.41,8.41,0,0,0,4.53-1.12,7.44,7.44,0,0,0,2.71-2.87,7.69,7.69,0,0,0,.91-3.6v-2.11a14,14,0,0,0-3.27-.58c-1.08-.05-2.18-.08-3.29-.08q-7.5,0-7.5,5.21T313.56,234.36Z" transform="translate(-42.35 -27.63)"/><path d="M357,240q-7.07,0-10.21-3.3t-3.15-10.56v-16h-7.79v-5.74h7.79V193.77h6.21v10.56H364v5.74H349.89v15.71q0,4.16,1.8,6t5.94,1.88a28.48,28.48,0,0,0,3.1-.18q1.65-.18,3.75-.48l.7,6.14c-1.36.26-2.7.46-4,.59S358.5,240,357,240Z" transform="translate(-42.35 -27.63)"/><path d="M386.86,240a11.83,11.83,0,0,1-10-4.75q-3.57-4.75-3.57-13.4c0-5.78,1.19-10.26,3.57-13.41a13,13,0,0,1,20.06,0c2.37,3.15,3.56,7.63,3.56,13.41s-1.19,10.23-3.56,13.4A11.8,11.8,0,0,1,386.86,240Zm0-6.27a5.84,5.84,0,0,0,5.29-3.1q1.86-3.1,1.86-8.78c0-3.8-.62-6.74-1.86-8.79a6.06,6.06,0,0,0-10.57,0c-1.24,2.05-1.86,5-1.86,8.79s.62,6.71,1.86,8.78A5.84,5.84,0,0,0,386.86,233.7Z" transform="translate(-42.35 -27.63)"/><path d="M406.79,239.31v-5.74h6.91v-23.5H408v-5.74h10.78l1.05,9h.71q.53-9.65,8.55-9.64c3.21,0,5.53,1,7,3.1s2.17,5.42,2.17,10H432a11.3,11.3,0,0,0-1-5.52,3.52,3.52,0,0,0-3.27-1.68,6.29,6.29,0,0,0-5.9,3.81q-2,3.81-1.95,10.84v9.31h7.62v5.74Z" transform="translate(-42.35 -27.63)"/><path d="M477.1,239.31v-5.74H484v-23.5h-5.74v-5.74h10.78l1.06,9h.7q.53-9.65,8.55-9.64c3.21,0,5.53,1,7,3.1s2.17,5.42,2.17,10h-6.16c0-2.56-.33-4.39-1-5.52a3.51,3.51,0,0,0-3.26-1.68,6.29,6.29,0,0,0-5.91,3.81q-1.95,3.81-1.95,10.84v9.31h7.62v5.74Z" transform="translate(-42.35 -27.63)"/><path d="M514.6,239.31v-5.74h11.83V210.14H516.36v-5.81h16.29v29.24h9.55v5.74Zm14.59-40.52a4,4,0,0,1-3.06-1.44,5.3,5.3,0,0,1,0-6.91,4,4,0,0,1,6.13,0,5.37,5.37,0,0,1,0,6.91A3.91,3.91,0,0,1,529.19,198.79Z" transform="translate(-42.35 -27.63)"/><path d="M560.24,240q-3.51,0-6-.23a30.58,30.58,0,0,1-4.58-.76l.7-6.34c2,.36,3.86.62,5.44.8a41.62,41.62,0,0,0,4.46.26q4.72,0,6.84-1a3.46,3.46,0,0,0,2.13-3.32,3.29,3.29,0,0,0-.75-2.36,5.07,5.07,0,0,0-2.3-1.2L559,223.73a17.23,17.23,0,0,1-6.75-3.26c-1.44-1.3-2.15-3.27-2.15-5.91q0-5.75,3.91-8.31t12.61-2.58a49.34,49.34,0,0,1,8.2.66l-.64,6.07c-1.58-.17-3-.29-4.19-.36s-2.39-.1-3.55-.1q-5.21,0-7.55,1a3.39,3.39,0,0,0-2.35,3.28,2.5,2.5,0,0,0,1,2.2,10,10,0,0,0,3,1.23l5.74,1.59c3.26.88,5.65,2.05,7.16,3.53s2.27,3.62,2.27,6.43c0,3.76-1.22,6.5-3.66,8.2S565.63,240,560.24,240Z" transform="translate(-42.35 -27.63)"/><path d="M600.2,240q-7.63,0-11.82-4.7t-4.17-13.52q0-8.56,4.09-13.33T600,203.67a15.18,15.18,0,0,1,7.78,1.9,10.6,10.6,0,0,1,4.61,5.36L607.59,215a10,10,0,0,0-3.37-3.73A8.71,8.71,0,0,0,593,212.93q-2.38,3-2.39,8.49,0,6,2.67,9.13a9.4,9.4,0,0,0,7.59,3.15c1.56,0,3.11-.08,4.64-.23s3-.36,4.5-.63l.7,6.14a33.43,33.43,0,0,1-5.24.79C603.71,239.9,601.94,240,600.2,240Z" transform="translate(-42.35 -27.63)"/><path d="M664.07,240a11.68,11.68,0,0,1-8.63-3.28,11.86,11.86,0,0,1-3.26-8.73,13.37,13.37,0,0,1,2.19-7.77,12.06,12.06,0,0,1,6.27-4.57q-3.6-5.77-3.6-10.69c0-4.21,1-7.44,3.12-9.72s5-3.42,8.83-3.42c3.34,0,5.94.92,7.78,2.74s2.77,4.41,2.77,7.76h-6.27a4.61,4.61,0,0,0-1.08-3.29,4.05,4.05,0,0,0-3.08-1.13,5,5,0,0,0-4.14,1.84,8.26,8.26,0,0,0-1.48,5.28,10.4,10.4,0,0,0,1.14,4.7,32.09,32.09,0,0,0,3.07,4.87l7.77,10.3A35.76,35.76,0,0,0,676.9,214h5.63q0,9.74-3,16.11l6.92,9.17h-7.68l-3-3.83A16,16,0,0,1,664.07,240Zm-6-12.34a6,6,0,0,0,1.83,4.54,6.77,6.77,0,0,0,4.84,1.73,9.77,9.77,0,0,0,7.36-3.07l-7.94-10.2c-.2-.24-.38-.48-.56-.72Q658.1,222.31,658.1,227.63Z" transform="translate(-42.35 -27.63)"/><path d="M231.65,321.06q-7.93,0-12.26-4.7t-4.32-13.51q0-8.58,3.66-13.33t10.34-4.75q6.3,0,9.74,4.29t3.44,12.47c0,1.6-.05,3.1-.17,4.49h-21a10.56,10.56,0,0,0,3.69,6.64,11.88,11.88,0,0,0,7.56,2.26,30,30,0,0,0,3.81-.24c1.25-.17,2.52-.39,3.81-.68l.76,6.14a37.26,37.26,0,0,1-5,.76C234.17,321,232.82,321.06,231.65,321.06Zm-2.52-30.16a7.12,7.12,0,0,0-5.74,2.54,12.55,12.55,0,0,0-2.52,7.23h15.76q0-4.73-2-7.24A6.62,6.62,0,0,0,229.13,290.9Z" transform="translate(-42.35 -27.63)"/><path d="M249.34,320.4l11.11-17.29-11.11-17.68h7l7.44,12.24,7.44-12.24h7L267,302.85l11.25,17.55h-7l-7.59-12.14-7.29,12.14Z" transform="translate(-42.35 -27.63)"/><path d="M286.32,335.58V285.43h5.62l.5,6.33h.67q.79-7,8.21-7a10.42,10.42,0,0,1,9.18,4.83q3.24,4.83,3.24,13.64,0,8.63-3.24,13.22a10.5,10.5,0,0,1-9.12,4.6,9.85,9.85,0,0,1-5.73-1.53,6,6,0,0,1-2.54-4.54h-.58v20.59Zm14.12-44.88q-7.92,0-7.91,10v8.44q0,5.94,7.85,5.94,7.2,0,7.21-11.88,0-6-1.86-9.27A5.81,5.81,0,0,0,300.44,290.7Z" transform="translate(-42.35 -27.63)"/><path d="M337.12,321.06q-7.94,0-12.26-4.7t-4.32-13.51q0-8.58,3.66-13.33t10.34-4.75q6.3,0,9.74,4.29t3.44,12.47c0,1.6-.06,3.1-.17,4.49h-21a10.56,10.56,0,0,0,3.69,6.64,11.88,11.88,0,0,0,7.56,2.26,30,30,0,0,0,3.81-.24c1.25-.17,2.52-.39,3.81-.68l.76,6.14a37.73,37.73,0,0,1-5,.76C339.64,321,338.29,321.06,337.12,321.06ZM334.6,290.9a7.12,7.12,0,0,0-5.74,2.54,12.55,12.55,0,0,0-2.52,7.23H342.1c0-3.15-.67-5.56-2-7.24A6.62,6.62,0,0,0,334.6,290.9Z" transform="translate(-42.35 -27.63)"/><path d="M354.05,320.4v-5.74H361V291.17h-5.75v-5.74H366l1.06,9h.7q.53-9.63,8.56-9.63,4.8,0,7,3.1t2.17,10h-6.15q0-3.82-1-5.51A3.52,3.52,0,0,0,375,290.7a6.3,6.3,0,0,0-5.91,3.82q-1.94,3.81-1.94,10.84v9.3h7.61v5.74Z" transform="translate(-42.35 -27.63)"/><path d="M409.77,321.06q-7,0-10.21-3.3t-3.14-10.56v-16h-7.8v-5.74h7.8V274.87h6.21v10.56h14.12v5.74H402.63v15.7q0,4.17,1.8,6c1.2,1.26,3.18,1.88,5.93,1.88a28.66,28.66,0,0,0,3.11-.18q1.63-.18,3.75-.48l.7,6.14c-1.37.26-2.7.46-4,.59A38.87,38.87,0,0,1,409.77,321.06Z" transform="translate(-42.35 -27.63)"/><path d="M478.62,321.06q-18.63,0-18.63-24.15,0-11.45,4.83-17.74t13.57-6.28a17.87,17.87,0,0,1,7.64,1.53,10.31,10.31,0,0,1,4.84,4.34l-4.37,4.88a9.84,9.84,0,0,0-3.38-3.46,8.42,8.42,0,0,0-4.38-1.22,10.64,10.64,0,0,0-9.2,4.6q-3.29,4.6-3.28,13,0,18.41,13.07,18.41a18,18,0,0,0,2.73-.2c.85-.13,1.64-.28,2.36-.46V303.24h-8.49V297H490v22.11c-.82.29-2.26.69-4.32,1.21A29.43,29.43,0,0,1,478.62,321.06Z" transform="translate(-42.35 -27.63)"/><path d="M497,320.4V273.55H507.1q19,0,19,24.08,0,22.77-19,22.77Zm10.08-40.58h-4.22v34.31h4.22q12.89,0,12.89-16.5Q520,279.83,507.1,279.82Z" transform="translate(-42.35 -27.63)"/><path d="M532.18,320.4V273.55h12.24q7.59,0,11.74,4.14t4.14,11.7q0,7.85-4.14,12.17t-11.74,4.32H538V320.4Zm12.24-40.58H538v19.79h6.38q4.64,0,7.18-2.5a9.47,9.47,0,0,0,2.55-7.06q0-4.89-2.55-7.56A9.45,9.45,0,0,0,544.42,279.82Z" transform="translate(-42.35 -27.63)"/><path d="M566.75,320.4V273.55H581q6.48,0,10,3.69c2.35,2.47,3.53,6,3.53,10.5a18.07,18.07,0,0,1-1.82,8.49,11.24,11.24,0,0,1-5.24,5.07l8.58,19.1h-7l-7.53-17.82h-8.93V320.4ZM581,279.82h-8.43v16.49H581a7.11,7.11,0,0,0,5.44-2.07,8.23,8.23,0,0,0,1.95-5.84,9.38,9.38,0,0,0-1.95-6.36A6.86,6.86,0,0,0,581,279.82Z" transform="translate(-42.35 -27.63)"/><path d="M231.78,511.46h-4.61V393A13,13,0,0,0,214,380.29H65.26A13,13,0,0,0,52.07,393V511.46H47.46a5,5,0,0,0-5.11,4.92v8.89a5,5,0,0,0,5.11,4.92H231.78a5,5,0,0,0,5.12-4.92v-8.89A5,5,0,0,0,231.78,511.46ZM58.56,393a6.59,6.59,0,0,1,6.7-6.45H214a6.58,6.58,0,0,1,6.7,6.45V511.46H156.49l-.77,2.07a1.62,1.62,0,0,1-1.51,1.05H128.27a1.63,1.63,0,0,1-1.51-1.05l-.77-2.07H58.56ZM230.41,524H48.83V517.7h73a8.19,8.19,0,0,0,6.45,3.13h25.94a8.22,8.22,0,0,0,6.46-3.13h69.74Z" transform="translate(-42.35 -27.63)"/><path d="M217.44,389.66H61.8V508.33H217.44ZM211,502.09H68.29V395.91H211Z" transform="translate(-42.35 -27.63)"/><path d="M113.68,483.35h48.64a3.18,3.18,0,0,0,3.24-3.12V442.75a3.18,3.18,0,0,0-3.24-3.12h-6.49v-7.81c0-9.47-8-17.18-17.83-17.18s-17.83,7.71-17.83,17.18v7.81h-6.49a3.18,3.18,0,0,0-3.24,3.12v37.48A3.18,3.18,0,0,0,113.68,483.35Zm13-51.53a11.36,11.36,0,0,1,22.7,0v7.81h-22.7Zm-9.73,14.05h42.16V477.1H116.92Z" transform="translate(-42.35 -27.63)"/><path d="M759,472h-5.87c-5.49,0-9.95,3.92-9.95,8.75v11.09H711V474.2c11.74-3.33,19.18-17.15,19.18-36.23,0-20.5-8.59-35-21.89-36.81a4.38,4.38,0,0,0-.51,0H579a3.14,3.14,0,0,0-3.16,2.32h0a15.77,15.77,0,0,0,4,13.36c3.67,3.89,9.4,6.15,17,6.79A58.46,58.46,0,0,0,595.06,438c0,20.67,9.9,36.85,22.54,36.85h67.63v36.76c0,4.74,4.38,8.59,9.76,8.59h6.24a9.76,9.76,0,0,0,9.14-5.66H743.2v8.25c0,4.83,4.46,8.75,9.94,8.75H759c5.49,0,10-3.92,10-8.75v-42C769,475.91,764.49,472,759,472Zm-51.51-65.2c7.72,1.24,15.42,10.44,16.16,28.35H657.57l-11.93-10.51a3.49,3.49,0,0,0-2.28-.83H619.51a.94.94,0,0,0-.09-.12c-.33-.46-.69-.93-1.09-1.4-.22-.26-.46-.51-.7-.77l-.31-.35-.4-.39c-.14-.15-.26-.29-.4-.43s-.13-.09-.19-.14c-.36-.34-.73-.68-1.13-1l-.78-.66c-.64-.53-1.31-1.06-2-1.59-.57-.42-1.18-.84-1.79-1.26l-.85-.57a110.21,110.21,0,0,0-15.61-8.3Zm-86.68,27.4c0,5.93-1.94,9.84-3.22,11.55-1.29-1.71-3.22-5.62-3.22-11.55a24.52,24.52,0,0,1,.67-5.82s0,0,.06,0a3.26,3.26,0,0,0,1,.7l.24.09a3.4,3.4,0,0,0,1.28.26h2.77A24.4,24.4,0,0,1,620.82,434.19Zm-36-21a9.93,9.93,0,0,1-2.55-5,156.83,156.83,0,0,1,17.24,7.7c-.31.7-.6,1.42-.88,2.15C592.14,417.69,587.51,416.07,584.79,413.23ZM601.49,438a50,50,0,0,1,3.5-18.91l.19.12a45.42,45.42,0,0,1,5.08,3.7,26.76,26.76,0,0,0-2.33,11.31c0,9.57,4.52,17.95,9.66,17.95s9.66-8.38,9.66-17.95a29.18,29.18,0,0,0-.4-4.72H633a56.08,56.08,0,0,1,.65,8.5c0,17.56-8.65,31.18-16.1,31.18C610,469.15,601.49,456.35,601.49,438Zm27.93,31.18c.09-.09.17-.21.26-.31a24.68,24.68,0,0,0,1.79-2.1c.1-.12.2-.23.29-.36.66-.89,1.29-1.84,1.89-2.84.16-.27.3-.55.46-.83.43-.77.84-1.56,1.23-2.38.17-.35.33-.71.5-1.07.38-.86.73-1.75,1.07-2.66.11-.3.23-.59.34-.89.42-1.22.8-2.48,1.14-3.77.06-.26.11-.52.18-.78.25-1.05.48-2.12.68-3.22l.21-1.32c.15-1,.28-2,.38-3,0-.43.09-.86.12-1.29.11-1.43.18-2.88.18-4.35v-8.5H642L654,440a3.47,3.47,0,0,0,2.28.83h67.41c-.74,17.9-8.44,27.11-16.16,28.34H629.42Zm71.8,45.36H695a3.16,3.16,0,0,1-3.33-2.93V474.82h12.89v36.76A3.15,3.15,0,0,1,701.22,514.51Zm9.77-5.67V497.5h32.2v11.34Zm51.52,13.92a3.31,3.31,0,0,1-3.5,3.08h-5.87a3.31,3.31,0,0,1-3.5-3.08v-42a3.32,3.32,0,0,1,3.5-3.09H759a3.32,3.32,0,0,1,3.5,3.09Z" transform="translate(-42.35 -27.63)"/><ellipse cx="636.44" cy="430.19" rx="3.22" ry="2.83"/><ellipse cx="623.55" cy="430.19" rx="3.22" ry="2.83"/><ellipse cx="610.67" cy="430.19" rx="3.22" ry="2.83"/><path d="M337.79,426.65a2.88,2.88,0,0,0,2.88-2.88V377.69h46.07a2.88,2.88,0,1,0,0-5.75H334.91v51.83A2.88,2.88,0,0,0,337.79,426.65Z" transform="translate(-42.35 -27.63)"/><path d="M499,487.12a2.88,2.88,0,0,0-2.88,2.88v43.19H453a2.88,2.88,0,0,0,0,5.76h48.95V490A2.88,2.88,0,0,0,499,487.12Z" transform="translate(-42.35 -27.63)"/><path d="M453,377.69h43.19v46.08a2.88,2.88,0,0,0,5.76,0V371.94H453a2.88,2.88,0,1,0,0,5.75Z" transform="translate(-42.35 -27.63)"/><path d="M386.74,533.19H340.67V490a2.88,2.88,0,0,0-5.76,0v49h51.83a2.88,2.88,0,1,0,0-5.76Z" transform="translate(-42.35 -27.63)"/><path d="M423.63,495.71h.07a2.87,2.87,0,0,0,2.81-2.94c-.05-2-.11-4-.19-5.81a2.83,2.83,0,0,0-3-2.76,2.88,2.88,0,0,0-2.76,3c.07,1.81.14,3.71.18,5.7A2.88,2.88,0,0,0,423.63,495.71Z" transform="translate(-42.35 -27.63)"/><path d="M422.72,478.47H423a2.88,2.88,0,0,0,2.62-3.12q-.29-3.15-.6-5.81A2.9,2.9,0,0,0,421.8,467a2.86,2.86,0,0,0-2.52,3.19q.3,2.58.57,5.64A2.88,2.88,0,0,0,422.72,478.47Z" transform="translate(-42.35 -27.63)"/><path d="M423.75,501.47a2.94,2.94,0,0,0-2.9,2.87c0,1.84,0,3.75-.07,5.72a2.89,2.89,0,0,0,2.83,2.93h.05a2.87,2.87,0,0,0,2.88-2.82c0-2,.06-3.93.07-5.8A2.88,2.88,0,0,0,423.75,501.47Z" transform="translate(-42.35 -27.63)"/><path d="M356.44,458a2.88,2.88,0,0,0-2.65,3.09c.14,1.93.35,3.89.62,5.9a2.89,2.89,0,0,0,2.85,2.49l.4,0a2.88,2.88,0,0,0,2.46-3.24q-.39-2.84-.59-5.55A2.88,2.88,0,0,0,356.44,458Z" transform="translate(-42.35 -27.63)"/><path d="M356.67,478.55q.69,2.81,1.55,5.68a2.88,2.88,0,0,0,5.52-1.64q-.83-2.76-1.48-5.43a2.88,2.88,0,0,0-5.59,1.39Z" transform="translate(-42.35 -27.63)"/><path d="M468.29,495.67h.07a2.88,2.88,0,0,0,2.88-2.81c.05-2,.09-3.91.13-5.78a2.89,2.89,0,0,0-2.83-2.93,2.83,2.83,0,0,0-2.93,2.83c0,1.85-.08,3.76-.12,5.74A2.87,2.87,0,0,0,468.29,495.67Z" transform="translate(-42.35 -27.63)"/><path d="M468.55,478.4h0a2.88,2.88,0,0,0,2.85-2.91q0-3-.12-5.82a2.88,2.88,0,1,0-5.76.18c.07,1.83.1,3.72.12,5.7A2.88,2.88,0,0,0,468.55,478.4Z" transform="translate(-42.35 -27.63)"/><path d="M374,501.05c0,1.82,0,3.72-.08,5.72a2.89,2.89,0,0,0,2.82,2.94h.06a2.88,2.88,0,0,0,2.88-2.82c.05-2,.07-4,.08-5.81a2.87,2.87,0,0,0-2.86-2.89A3,3,0,0,0,374,501.05Z" transform="translate(-42.35 -27.63)"/><path d="M373.21,464a2.88,2.88,0,0,0-2,3.54c.44,1.58.94,3.45,1.27,5.34a2.88,2.88,0,0,0,2.83,2.37,2.94,2.94,0,0,0,.51-.05,2.87,2.87,0,0,0,2.33-3.34c-.38-2.12-.91-4.15-1.39-5.86A2.87,2.87,0,0,0,373.21,464Z" transform="translate(-42.35 -27.63)"/><path d="M376.32,480.93a2.87,2.87,0,0,0-2.7,3c.1,1.73.19,3.62.26,5.68a2.88,2.88,0,0,0,2.87,2.78h.1a2.87,2.87,0,0,0,2.78-3q-.11-3.18-.26-5.83A2.87,2.87,0,0,0,376.32,480.93Z" transform="translate(-42.35 -27.63)"/><path d="M390.77,487.94a2.88,2.88,0,0,0-2.8,3q.06,2.69.09,5.7a2.88,2.88,0,0,0,2.88,2.86h0a2.88,2.88,0,0,0,2.86-2.9c0-2.06-.05-4-.1-5.82A2.82,2.82,0,0,0,390.77,487.94Z" transform="translate(-42.35 -27.63)"/><path d="M390.26,482.2h.23a2.87,2.87,0,0,0,2.64-3.1c-.18-2.22-.37-4.16-.59-5.84a2.88,2.88,0,1,0-5.71.7c.2,1.62.39,3.48.56,5.6A2.88,2.88,0,0,0,390.26,482.2Z" transform="translate(-42.35 -27.63)"/><path d="M390.91,505.22a2.84,2.84,0,0,0-3,2.81c0,1.84-.09,3.74-.16,5.72a2.87,2.87,0,0,0,2.77,3h.11a2.87,2.87,0,0,0,2.87-2.77c.07-2,.13-3.94.17-5.8A2.87,2.87,0,0,0,390.91,505.22Z" transform="translate(-42.35 -27.63)"/><path d="M444.13,437.15a2.88,2.88,0,0,0,2.45,1.36,2.84,2.84,0,0,0,1.52-.44,2.87,2.87,0,0,0,.92-4,35.14,35.14,0,0,0-3.76-5A2.88,2.88,0,1,0,441,433,29.23,29.23,0,0,1,444.13,437.15Z" transform="translate(-42.35 -27.63)"/><path d="M427.91,424.5a30.05,30.05,0,0,1,4.84,2,2.76,2.76,0,0,0,1.33.33,2.88,2.88,0,0,0,1.35-5.43,35.94,35.94,0,0,0-5.77-2.42,2.88,2.88,0,1,0-1.75,5.49Z" transform="translate(-42.35 -27.63)"/><path d="M454.24,495.64h.08a2.88,2.88,0,0,0,2.87-2.81c.05-2,.1-3.92.13-5.77a2.89,2.89,0,0,0-2.83-2.94h-.05a2.88,2.88,0,0,0-2.88,2.83c0,1.84-.08,3.75-.13,5.74A2.89,2.89,0,0,0,454.24,495.64Z" transform="translate(-42.35 -27.63)"/><path d="M389.58,438.55a2.83,2.83,0,0,0,1.42.38,2.88,2.88,0,0,0,2.51-1.46,28.66,28.66,0,0,1,3-4.28,2.88,2.88,0,0,0-4.4-3.72,33.93,33.93,0,0,0-3.59,5.16A2.88,2.88,0,0,0,389.58,438.55Z" transform="translate(-42.35 -27.63)"/><path d="M411.73,423.83a2.68,2.68,0,0,0,.62-.07,29,29,0,0,1,5.2-.66,2.88,2.88,0,0,0-.23-5.76,36.77,36.77,0,0,0-6.21.8,2.88,2.88,0,0,0,.62,5.69Z" transform="translate(-42.35 -27.63)"/><path d="M451,506.73a2.88,2.88,0,0,0,2.78,3h.1a2.88,2.88,0,0,0,2.87-2.79l.09-2.55a2.88,2.88,0,0,0-5.75-.19Z" transform="translate(-42.35 -27.63)"/><path d="M454.51,478.37h0a2.88,2.88,0,0,0,2.85-2.91c0-2-.07-4-.13-5.83a2.88,2.88,0,1,0-5.75.2c.06,1.81.1,3.7.12,5.69A2.88,2.88,0,0,0,454.51,478.37Z" transform="translate(-42.35 -27.63)"/><path d="M440.14,499.26h0a2.88,2.88,0,0,0-2.88,2.86c0,1.85,0,3.76-.07,5.73a2.88,2.88,0,0,0,2.82,2.93h.06a2.88,2.88,0,0,0,2.88-2.83c0-2,.06-3.91.07-5.79A2.89,2.89,0,0,0,440.14,499.26Z" transform="translate(-42.35 -27.63)"/><path d="M440,493.32h.07a2.88,2.88,0,0,0,2.81-2.95c0-1.26-.06-2.47-.1-3.66a2.88,2.88,0,0,0-5.76.19c0,1.17.08,2.37.1,3.6A2.89,2.89,0,0,0,440,493.32Z" transform="translate(-42.35 -27.63)"/><path d="M439.3,478.18h.23a2.88,2.88,0,0,0,2.65-3.09c-.17-2.07-.34-4-.53-5.81a2.88,2.88,0,1,0-5.73.6c.18,1.76.36,3.64.51,5.66A2.88,2.88,0,0,0,439.3,478.18Z" transform="translate(-42.35 -27.63)"/><path d="M407.21,492.06a2.88,2.88,0,0,0-2.82,2.94c0,1.82.06,3.72.07,5.7a2.88,2.88,0,0,0,2.88,2.87h0a2.87,2.87,0,0,0,2.87-2.88c0-2,0-4-.07-5.81A2.91,2.91,0,0,0,407.21,492.06Z" transform="translate(-42.35 -27.63)"/><path d="M407.29,509.33a2.82,2.82,0,0,0-2.94,2.81c-.05,1.86-.11,3.76-.17,5.73a2.87,2.87,0,0,0,2.77,3h.1a2.88,2.88,0,0,0,2.88-2.78c.07-2,.13-3.92.17-5.79A2.88,2.88,0,0,0,407.29,509.33Z" transform="translate(-42.35 -27.63)"/><path d="M406.82,486.31H407a2.87,2.87,0,0,0,2.7-3c-.12-2.09-.26-4-.42-5.82a2.88,2.88,0,0,0-5.74.49q.22,2.63.41,5.67A2.88,2.88,0,0,0,406.82,486.31Z" transform="translate(-42.35 -27.63)"/><path d="M405.51,469.1a2.88,2.88,0,0,0,2.39-3.3c-.46-2.79-.89-4.74-1.16-5.87a2.88,2.88,0,0,0-5.6,1.37c.26,1,.65,2.82,1.07,5.42a2.88,2.88,0,0,0,2.84,2.42A2.38,2.38,0,0,0,405.51,469.1Z" transform="translate(-42.35 -27.63)"/><path d="M501.92,449.68H483.64a91.78,91.78,0,0,0-6.16-21.55,63.75,63.75,0,0,0-83.27-34,76,76,0,0,0-12.15,6.38,2.88,2.88,0,0,0,3.14,4.83,69.44,69.44,0,0,1,11.23-5.9,58,58,0,0,1,75.74,30.93,86.1,86.1,0,0,1,5.63,19.31h-8.5a79.7,79.7,0,0,0-2.75-10.8c-6.43-18.95-27.05-34.91-46-35.59a49.71,49.71,0,0,0-51.42,46.39h-9.63c1-14.73,6.43-27.12,16.25-36.81a2.88,2.88,0,1,0-4-4.1c-10.79,10.64-16.93,24.75-18,40.91h-16a2.88,2.88,0,0,0,0,5.76h31.3v.15a2.88,2.88,0,0,0,2.88,2.72h.15a2.85,2.85,0,0,0,2.7-2.87H384a2.76,2.76,0,0,0-.29,1.4,42,42,0,0,0,.91,6.1,2.88,2.88,0,0,0,2.81,2.25,2.76,2.76,0,0,0,.63-.07,2.88,2.88,0,0,0,2.18-3.44,37.58,37.58,0,0,1-.79-5.28,2.85,2.85,0,0,0-.26-1h27.31c.25.82.57,2,.94,3.68a2.87,2.87,0,0,0,2.81,2.26,3.34,3.34,0,0,0,.62-.06,2.88,2.88,0,0,0,2.19-3.43c-.21-.94-.4-1.75-.58-2.45H433.6c.25,1.05.48,2.13.71,3.28a2.88,2.88,0,0,0,2.82,2.34,2.64,2.64,0,0,0,.55-.06,2.87,2.87,0,0,0,2.28-3.37c-.15-.75-.3-1.47-.46-2.19h10.74c.16,1,.31,2.06.44,3.16a2.88,2.88,0,0,0,2.86,2.53l.35,0a2.89,2.89,0,0,0,2.51-3.21c-.11-.84-.22-1.65-.34-2.46h8.35c.14,1,.3,2.05.41,3.13a2.89,2.89,0,0,0,2.86,2.58h.3a2.89,2.89,0,0,0,2.57-3.17c-.09-.87-.22-1.68-.33-2.53h8.39c.1.83.2,1.65.29,2.5a2.87,2.87,0,0,0,2.86,2.6,1.37,1.37,0,0,0,.28,0,2.88,2.88,0,0,0,2.59-3.14c-.07-.66-.15-1.29-.22-1.93h17.51a2.89,2.89,0,0,0,0-5.77ZM401.83,412.41a43.56,43.56,0,0,1,18.54-3.36c16.45.59,35.1,15.1,40.73,31.69a74.14,74.14,0,0,1,2.33,8.95H455c-.33-1.49-.7-2.93-1.12-4.34a2.88,2.88,0,1,0-5.51,1.67c.26.87.5,1.76.73,2.67H438a43.65,43.65,0,0,0-1.54-4.22,19.26,19.26,0,0,0-36.72,4.22H389.62c.09-.79.2-1.56.34-2.33a2.88,2.88,0,0,0-5.67-1c-.2,1.1-.35,2.23-.46,3.37h-8.91A43.89,43.89,0,0,1,401.83,412.41Zm3.87,37.27a13.48,13.48,0,0,1,25.51-1.95c.17.41.44,1,.76,1.95Z" transform="translate(-42.35 -27.63)"/><path class="cls-1" d="M592.21,180.36c-5.13,8-12.66,14.25-19.78,20.46q-10.26,9-21,17.33a498.26,498.26,0,0,1-47.52,32.69c-1.65,1-.14,3.59,1.51,2.59a501.66,501.66,0,0,0,48.13-33.16q11.46-8.94,22.38-18.52c6.88-6.05,13.92-12.08,18.88-19.88,1-1.63-1.56-3.14-2.59-1.51Z" transform="translate(-42.35 -27.63)"/><path class="cls-1" d="M500.15,197.8c15.44,14.86,35.37,23.56,54.34,32.91l66.27,32.65c1.73.85,3.25-1.74,1.52-2.59L557.8,229c-19.29-9.5-39.83-18.21-55.53-33.32-1.39-1.34-3.52.78-2.12,2.12Z" transform="translate(-42.35 -27.63)"/><path class="cls-1" d="M609.23,293c-6.65-12.55-14.09-25.74-27.64-31.81-14.29-6.4-31.29-4.75-46.53-4.72-16.91,0-34.35-1.19-51.17.81-10.91,1.3-22.79,4.85-28.8,14.84-7.47,12.43-2.27,28.54,2,41.18,3.93,11.77,9.83,24.12,21.34,30.13,6.31,3.29,13.45,4.29,20.48,4.7,9.1.53,18.24.58,27.35.83,17.69.5,35.88,2.22,53.51.22,15.06-1.71,30.11-7.53,39.16-20.28,10.47-14.74,5-31.4-1.41-46.59-.75-1.77-3.34-.25-2.59,1.51,6,14.17,11.26,29.77,1.41,43.56-8.11,11.36-21.6,16.79-35,18.59-15.21,2.05-30.89.67-46.16.24l-21.77-.61c-7.91-.22-16.08,0-23.88-1.55-14.15-2.84-22.44-13.12-27.54-26-4.56-11.54-10.17-26.79-6.54-39.15,3.78-12.85,17.15-17.35,29.19-18.7,13.7-1.54,27.78-.69,41.54-.71,16.12,0,34.1-2.13,49.7,2.73s23.62,18.7,30.82,32.29c.91,1.71,3.5.19,2.59-1.51Z" transform="translate(-42.35 -27.63)"/></svg>